PathFileType	4	(X/Y/Z)	s03c0301.trc
DataRate	CameraRate	NumFrames	NumMarkers	Units	OrigDataRate	OrigDataStartFrame	OrigNumFrames
200	200	4	52	mm	200	1750	2000
Frame#	Time	racr			lacr			c7			jug			rlel			rdr			llel			ldr			s2			lic			ric			lasi			rasi			rpsi			lpsi			rgt			lgt			rth1			rth2			rth3			rth4			rlfc			rmfc			rsh1			rsh2			rsh3			rsh4			rlmal			rmmal			rcal			rtoe			rmt5			rmt1			lth1			lth2			lth4			lth3			llfc			lmfc			lsh1			lsh2			lsh3			lsh4			llmal			lmmal			lcal			ltoe			lmt1			lmt5			SBIKE			LBIKE			RBIKE			
		X1	Y1	Z1	X2	Y2	Z2	X3	Y3	Z3	X4	Y4	Z4	X5	Y5	Z5	X6	Y6	Z6	X7	Y7	Z7	X8	Y8	Z8	X9	Y9	Z9	X10	Y10	Z10	X11	Y11	Z11	X12	Y12	Z12	X13	Y13	Z13	X14	Y14	Z14	X15	Y15	Z15	X16	Y16	Z16	X17	Y17	Z17	X18	Y18	Z18	X19	Y19	Z19	X20	Y20	Z20	X21	Y21	Z21	X22	Y22	Z22	X23	Y23	Z23	X24	Y24	Z24	X25	Y25	Z25	X26	Y26	Z26	X27	Y27	Z27	X28	Y28	Z28	X29	Y29	Z29	X30	Y30	Z30	X31	Y31	Z31	X32	Y32	Z32	X33	Y33	Z33	X34	Y34	Z34	X35	Y35	Z35	X36	Y36	Z36	X37	Y37	Z37	X38	Y38	Z38	X39	Y39	Z39	X40	Y40	Z40	X41	Y41	Z41	X42	Y42	Z42	X43	Y43	Z43	X44	Y44	Z44	X45	Y45	Z45	X46	Y46	Z46	X47	Y47	Z47	X48	Y48	Z48	X49	Y49	Z49	X50	Y50	Z50	X51	Y51	Z51	X52	Y52	Z52	
1750	8.7500	544.586679	1406.781843	-33.531215	537.355035	1437.044051	-351.053979	474.040259	1506.233170	-184.527509	497.378276	1335.255858	-195.609799	528.665356	1131.908570	58.880260	721.181755	942.437746	-40.343490	575.934420	1173.104975	-438.603132	735.764776	917.024498	-415.885928	-62.675805	1249.124910	-197.064642	115.763056	1273.918375	-378.289843	121.363678	1231.691163	-18.327740	122.893191	1196.869122	-351.743814	131.968959	1155.846625	-69.887241	-25.870733	1287.443555	-144.624992	-23.524153	1298.038033	-228.359898	34.643549	1128.370253	-18.213881	47.863795	1204.640147	-407.461286	76.257200	978.380996	-1.609650	128.712454	906.453077	-3.269462	142.040367	822.662620	-18.421215	162.306089	921.025818	-8.843253	178.851313	706.587349	-55.118965	201.127596	694.937076	-166.377546	156.093405	539.945869	-29.575448	175.949962	453.170739	-39.563036	148.456465	369.215937	-45.327294	207.774301	454.049142	-62.290340	134.075069	236.608532	-68.307149	161.801973	253.534686	-148.162031	76.626488	194.865495	-104.952255	386.517206	172.869565	-114.647880	268.341749	160.118471	-40.832682	291.771421	180.103293	-154.834071	134.606006	1125.267770	-472.859723	212.777813	1102.500977	-502.533410	235.662386	1128.956038	-489.194657	269.112040	1038.520380	-530.354703	386.127955	963.446217	-552.435479	423.067130	948.766869	-427.511229	279.492543	827.571890	-532.319550	252.294974	754.309890	-495.452206	183.814010	702.998814	-466.530529	282.545866	740.084297	-475.489705	111.707439	608.295930	-416.221544	155.272500	628.486632	-335.650551	42.664433	585.255963	-358.638776	339.074629	504.706406	-362.626945	248.066908	522.121193	-316.820393	216.078064	504.123082	-430.636424	-214.678994	944.988976	-232.438742	-9.311460	80.747196	-433.383575	-9.249823	80.674334	-32.968483	
1751	8.7550	543.653446	1406.723102	-33.566622	536.663449	1436.924992	-351.203649	473.132000	1506.207958	-184.584139	496.601643	1335.241227	-195.783928	528.315099	1131.822657	58.594742	721.121551	942.419143	-40.438116	575.639287	1172.971344	-438.598296	735.691343	917.021240	-415.880932	-63.429482	1248.651625	-197.451849	115.178297	1273.610685	-378.636219	120.545266	1231.578133	-18.599456	122.199329	1196.439665	-351.665398	131.238424	1155.686132	-70.155984	-26.615142	1287.146598	-145.052696	-24.246379	1297.729424	-228.826873	33.895188	1128.145828	-18.526386	47.329168	1204.328865	-407.782253	75.658334	978.198190	-1.866891	128.330936	906.361683	-3.497153	141.732812	822.591151	-18.468814	161.995089	920.826390	-9.263524	178.763589	706.553696	-55.089882	201.061540	694.897359	-166.359322	155.985759	539.900425	-29.579842	175.834076	453.121339	-39.565946	148.338200	369.172946	-45.334243	207.689925	453.998768	-62.281047	133.953836	236.597567	-68.346447	161.721973	253.502130	-148.183276	76.520727	194.813258	-105.011098	386.405184	172.882860	-114.633231	268.242290	160.087429	-40.851458	291.682777	180.102998	-154.854747	134.258534	1124.972417	-473.108801	212.474106	1102.278387	-502.701126	235.292564	1128.800242	-489.343403	268.911799	1038.345406	-530.425114	386.007957	963.570814	-552.753047	422.869173	948.807971	-427.403576	279.442466	827.504132	-532.288686	252.251382	754.245868	-495.403589	183.867938	702.787721	-466.310449	282.483930	740.042065	-475.416907	111.663574	608.203044	-416.220346	155.486197	628.212926	-335.477379	42.614516	585.068895	-358.630140	339.065797	504.776428	-362.713203	248.077070	522.155443	-316.811123	216.100183	504.148514	-430.655025	-214.731424	945.005999	-232.663999	-9.313537	80.725503	-433.393916	-9.251806	80.677802	-32.968857	
1752	8.7600	542.789052	1406.697850	-33.532392	535.968148	1436.832707	-351.379973	472.260324	1506.170079	-184.813491	495.920977	1335.226284	-195.806557	527.970514	1131.718957	58.297973	721.055538	942.406597	-40.522705	575.328161	1172.826201	-438.582480	735.611676	917.023111	-415.827560	-64.045151	1248.027925	-197.425461	114.583094	1273.311755	-378.970246	119.800819	1231.519538	-18.920334	121.753027	1196.384285	-352.365709	130.504883	1155.515212	-70.431365	-27.412625	1286.846315	-145.484359	-25.001103	1297.409012	-229.272885	33.189966	1127.969239	-18.824880	46.843150	1203.875402	-408.115378	75.128262	978.026093	-2.096471	127.822706	906.259494	-3.651599	141.428129	822.505643	-18.548733	161.559425	920.784327	-9.361112	178.665918	706.507762	-55.086506	201.015514	694.857892	-166.340286	155.893771	539.855220	-29.568994	175.757601	453.075163	-39.554328	148.230606	369.129620	-45.353086	207.601730	453.951119	-62.254397	133.839934	236.576071	-68.331863	161.640434	253.472846	-148.175610	76.412425	194.749167	-105.033731	386.299280	172.945130	-114.631384	268.125330	160.071241	-40.855155	291.612294	180.092753	-154.839643	133.936413	1124.493464	-472.973856	212.190633	1102.066092	-502.863379	234.964542	1128.606029	-489.503647	268.719965	1038.117627	-530.504738	385.942267	963.343754	-552.321224	422.679040	948.852418	-427.297653	279.399693	827.424376	-532.270387	252.211314	754.178212	-495.367344	183.829014	702.707803	-466.305499	282.435167	740.005927	-475.361486	111.606947	608.111936	-416.201928	155.090565	628.362415	-335.571728	42.559003	584.926824	-358.627675	339.102034	504.854061	-362.693689	248.080857	522.185372	-316.800223	216.129214	504.169832	-430.636772	-214.681788	945.000973	-232.530439	-9.314388	80.742443	-433.393578	-9.240383	80.679825	-32.973777	
1753	8.7650	541.853562	1406.622057	-33.594830	535.300285	1436.686750	-351.471105	471.363854	1506.160602	-184.855860	495.238996	1335.240268	-195.829650	527.642264	1131.600961	57.999367	720.988719	942.395135	-40.641295	575.083961	1172.712939	-438.547971	735.566928	917.012692	-415.817245	-64.822852	1247.979433	-198.391430	113.994347	1272.999235	-379.373706	118.945039	1231.334408	-19.234285	121.287882	1195.987956	-352.698067	129.750253	1155.325949	-70.727130	-28.188771	1286.530818	-145.942194	-25.732713	1297.010932	-229.738997	32.468414	1127.766351	-19.162552	46.344430	1203.463996	-408.504014	74.606111	977.893860	-2.365065	127.629439	905.986807	-4.202382	141.126479	822.450037	-18.637332	161.277841	920.575372	-9.742005	178.579089	706.463859	-55.072848	200.980739	694.842578	-166.315487	155.803647	539.818743	-29.558049	175.641596	453.012240	-39.537746	148.143872	369.102331	-45.337938	207.517141	453.911390	-62.213694	133.755383	236.547541	-68.327443	161.598732	253.419391	-148.185999	76.325596	194.689407	-105.048588	386.207774	172.978243	-114.627157	268.042967	160.055715	-40.846261	291.531240	180.092843	-154.825736	133.556462	1124.284785	-473.575130	211.884511	1101.757936	-503.014332	234.624694	1128.392013	-489.715675	268.551074	1037.856624	-530.571060	385.858648	963.277586	-552.265947	422.479291	948.876967	-427.191746	279.362399	827.344897	-532.239760	252.179041	754.123538	-495.365499	183.689065	702.753775	-466.504254	282.381193	739.957980	-475.269811	111.575524	608.032322	-416.205061	155.255938	628.119247	-335.395807	42.506093	584.803118	-358.634076	339.106388	505.000637	-362.665676	248.074414	522.209815	-316.788403	216.139313	504.187348	-430.628900	-214.668952	945.025651	-232.599991	-9.321321	80.744389	-433.401542	-9.237460	80.688972	-32.958779	
